<svg width="43" height="42" viewBox="0 0 43 42" fill="none" xmlns="http://www.w3.org/2000/svg">
<g clip-path="url(#clip0)">
<path d="M11.6275 13.6325C13.7304 15.4959 15.8333 17.3593 17.9362 19.2228C21.2897 22.1943 24.6431 25.1659 27.9965 28.1374C28.7704 28.8232 29.5387 29.504 30.3125 30.1897C31.0359 30.8307 32.0304 29.7084 31.307 29.0674C29.2041 27.204 27.1012 25.3405 24.9983 23.4771C21.6449 20.5056 18.2914 17.534 14.938 14.5624C14.1641 13.8767 13.3959 13.1959 12.622 12.5102C11.8986 11.8692 10.9041 12.9914 11.6275 13.6325Z" fill="#949494"/>
<path d="M29.1906 11.5043C27.326 13.6086 25.4613 15.7129 23.5966 17.8172C20.6231 21.1729 17.6495 24.5285 14.676 27.8842C13.9898 28.6586 13.3086 29.4273 12.6224 30.2017C11.9809 30.9256 13.1025 31.9194 13.7439 31.1956C15.6086 29.0913 17.4733 26.9869 19.338 24.8826C22.3115 21.527 25.285 18.1713 28.2586 14.8157C28.9448 14.0413 29.626 13.2725 30.3122 12.4981C30.9536 11.7742 29.8321 10.7804 29.1906 11.5043Z" fill="#949494"/>
</g>
<defs>
<clipPath id="clip0">
<rect width="31" height="28" fill="white" transform="translate(0.742188 23.3159) rotate(-48.4551)"/>
</clipPath>
</defs>
</svg>
